# generated by generate_human_meshes.py
v -0.100000 0.000000 0.000000
v -0.095949 -0.028173 0.000000
v -0.084125 -0.054064 0.000000
v -0.065486 -0.075575 0.000000
v -0.041542 -0.090963 0.000000
v -0.014231 -0.098982 0.000000
v 0.014231 -0.098982 0.000000
v 0.041542 -0.090963 0.000000
v 0.065486 -0.075575 0.000000
v 0.084125 -0.054064 0.000000
v 0.095949 -0.028173 0.000000
v 0.100000 -0.000000 0.000000
v 0.095949 0.028173 0.000000
v 0.084125 0.054064 0.000000
v 0.065486 0.075575 0.000000
v 0.041542 0.090963 0.000000
v 0.014231 0.098982 0.000000
v -0.014231 0.098982 0.000000
v -0.041542 0.090963 0.000000
v -0.065486 0.075575 0.000000
v -0.084125 0.054064 0.000000
v -0.095949 0.028173 0.000000
v -0.100000 0.000000 0.017500
v -0.095949 -0.028173 0.017500
v -0.084125 -0.054064 0.017500
v -0.065486 -0.075575 0.017500
v -0.041542 -0.090963 0.017500
v -0.014231 -0.098982 0.017500
v 0.014231 -0.098982 0.017500
v 0.041542 -0.090963 0.017500
v 0.065486 -0.075575 0.017500
v 0.084125 -0.054064 0.017500
v 0.095949 -0.028173 0.017500
v 0.100000 -0.000000 0.017500
v 0.095949 0.028173 0.017500
v 0.084125 0.054064 0.017500
v 0.065486 0.075575 0.017500
v 0.041542 0.090963 0.017500
v 0.014231 0.098982 0.017500
v -0.014231 0.098982 0.017500
v -0.041542 0.090963 0.017500
v -0.065486 0.075575 0.017500
v -0.084125 0.054064 0.017500
v -0.095949 0.028173 0.017500
v -0.100000 0.000000 0.035000
v -0.095949 -0.028173 0.035000
v -0.084125 -0.054064 0.035000
v -0.065486 -0.075575 0.035000
v -0.041542 -0.090963 0.035000
v -0.014231 -0.098982 0.035000
v 0.014231 -0.098982 0.035000
v 0.041542 -0.090963 0.035000
v 0.065486 -0.075575 0.035000
v 0.084125 -0.054064 0.035000
v 0.095949 -0.028173 0.035000
v 0.100000 -0.000000 0.035000
v 0.095949 0.028173 0.035000
v 0.084125 0.054064 0.035000
v 0.065486 0.075575 0.035000
v 0.041542 0.090963 0.035000
v 0.014231 0.098982 0.035000
v -0.014231 0.098982 0.035000
v -0.041542 0.090963 0.035000
v -0.065486 0.075575 0.035000
v -0.084125 0.054064 0.035000
v -0.095949 0.028173 0.035000
v -0.100000 0.000000 0.052500
v -0.095949 -0.028173 0.052500
v -0.084125 -0.054064 0.052500
v -0.065486 -0.075575 0.052500
v -0.041542 -0.090963 0.052500
v -0.014231 -0.098982 0.052500
v 0.014231 -0.098982 0.052500
v 0.041542 -0.090963 0.052500
v 0.065486 -0.075575 0.052500
v 0.084125 -0.054064 0.052500
v 0.095949 -0.028173 0.052500
v 0.100000 -0.000000 0.052500
v 0.095949 0.028173 0.052500
v 0.084125 0.054064 0.052500
v 0.065486 0.075575 0.052500
v 0.041542 0.090963 0.052500
v 0.014231 0.098982 0.052500
v -0.014231 0.098982 0.052500
v -0.041542 0.090963 0.052500
v -0.065486 0.075575 0.052500
v -0.084125 0.054064 0.052500
v -0.095949 0.028173 0.052500
v -0.100000 0.000000 0.070000
v -0.095949 -0.028173 0.070000
v -0.084125 -0.054064 0.070000
v -0.065486 -0.075575 0.070000
v -0.041542 -0.090963 0.070000
v -0.014231 -0.098982 0.070000
v 0.014231 -0.098982 0.070000
v 0.041542 -0.090963 0.070000
v 0.065486 -0.075575 0.070000
v 0.084125 -0.054064 0.070000
v 0.095949 -0.028173 0.070000
v 0.100000 -0.000000 0.070000
v 0.095949 0.028173 0.070000
v 0.084125 0.054064 0.070000
v 0.065486 0.075575 0.070000
v 0.041542 0.090963 0.070000
v 0.014231 0.098982 0.070000
v -0.014231 0.098982 0.070000
v -0.041542 0.090963 0.070000
v -0.065486 0.075575 0.070000
v -0.084125 0.054064 0.070000
v -0.095949 0.028173 0.070000
v -0.100000 0.000000 0.087500
v -0.095949 -0.028173 0.087500
v -0.084125 -0.054064 0.087500
v -0.065486 -0.075575 0.087500
v -0.041542 -0.090963 0.087500
v -0.014231 -0.098982 0.087500
v 0.014231 -0.098982 0.087500
v 0.041542 -0.090963 0.087500
v 0.065486 -0.075575 0.087500
v 0.084125 -0.054064 0.087500
v 0.095949 -0.028173 0.087500
v 0.100000 -0.000000 0.087500
v 0.095949 0.028173 0.087500
v 0.084125 0.054064 0.087500
v 0.065486 0.075575 0.087500
v 0.041542 0.090963 0.087500
v 0.014231 0.098982 0.087500
v -0.014231 0.098982 0.087500
v -0.041542 0.090963 0.087500
v -0.065486 0.075575 0.087500
v -0.084125 0.054064 0.087500
v -0.095949 0.028173 0.087500
v -0.100000 0.000000 0.105000
v -0.095949 -0.028173 0.105000
v -0.084125 -0.054064 0.105000
v -0.065486 -0.075575 0.105000
v -0.041542 -0.090963 0.105000
v -0.014231 -0.098982 0.105000
v 0.014231 -0.098982 0.105000
v 0.041542 -0.090963 0.105000
v 0.065486 -0.075575 0.105000
v 0.084125 -0.054064 0.105000
v 0.095949 -0.028173 0.105000
v 0.100000 -0.000000 0.105000
v 0.095949 0.028173 0.105000
v 0.084125 0.054064 0.105000
v 0.065486 0.075575 0.105000
v 0.041542 0.090963 0.105000
v 0.014231 0.098982 0.105000
v -0.014231 0.098982 0.105000
v -0.041542 0.090963 0.105000
v -0.065486 0.075575 0.105000
v -0.084125 0.054064 0.105000
v -0.095949 0.028173 0.105000
v -0.100000 0.000000 0.122500
v -0.095949 -0.028173 0.122500
v -0.084125 -0.054064 0.122500
v -0.065486 -0.075575 0.122500
v -0.041542 -0.090963 0.122500
v -0.014231 -0.098982 0.122500
v 0.014231 -0.098982 0.122500
v 0.041542 -0.090963 0.122500
v 0.065486 -0.075575 0.122500
v 0.084125 -0.054064 0.122500
v 0.095949 -0.028173 0.122500
v 0.100000 -0.000000 0.122500
v 0.095949 0.028173 0.122500
v 0.084125 0.054064 0.122500
v 0.065486 0.075575 0.122500
v 0.041542 0.090963 0.122500
v 0.014231 0.098982 0.122500
v -0.014231 0.098982 0.122500
v -0.041542 0.090963 0.122500
v -0.065486 0.075575 0.122500
v -0.084125 0.054064 0.122500
v -0.095949 0.028173 0.122500
v -0.100000 0.000000 0.140000
v -0.095949 -0.028173 0.140000
v -0.084125 -0.054064 0.140000
v -0.065486 -0.075575 0.140000
v -0.041542 -0.090963 0.140000
v -0.014231 -0.098982 0.140000
v 0.014231 -0.098982 0.140000
v 0.041542 -0.090963 0.140000
v 0.065486 -0.075575 0.140000
v 0.084125 -0.054064 0.140000
v 0.095949 -0.028173 0.140000
v 0.100000 -0.000000 0.140000
v 0.095949 0.028173 0.140000
v 0.084125 0.054064 0.140000
v 0.065486 0.075575 0.140000
v 0.041542 0.090963 0.140000
v 0.014231 0.098982 0.140000
v -0.014231 0.098982 0.140000
v -0.041542 0.090963 0.140000
v -0.065486 0.075575 0.140000
v -0.084125 0.054064 0.140000
v -0.095949 0.028173 0.140000
v -0.092388 0.000000 0.178268
v -0.088646 -0.026029 0.178268
v -0.077722 -0.049949 0.178268
v -0.060501 -0.069822 0.178268
v -0.038379 -0.084039 0.178268
v -0.013148 -0.091448 0.178268
v 0.013148 -0.091448 0.178268
v 0.038379 -0.084039 0.178268
v 0.060501 -0.069822 0.178268
v 0.077722 -0.049949 0.178268
v 0.088646 -0.026029 0.178268
v 0.092388 -0.000000 0.178268
v 0.088646 0.026029 0.178268
v 0.077722 0.049949 0.178268
v 0.060501 0.069822 0.178268
v 0.038379 0.084039 0.178268
v 0.013148 0.091448 0.178268
v -0.013148 0.091448 0.178268
v -0.038379 0.084039 0.178268
v -0.060501 0.069822 0.178268
v -0.077722 0.049949 0.178268
v -0.088646 0.026029 0.178268
v -0.070711 0.000000 0.210711
v -0.067846 -0.019922 0.210711
v -0.059486 -0.038229 0.210711
v -0.046306 -0.053440 0.210711
v -0.029374 -0.064321 0.210711
v -0.010063 -0.069991 0.210711
v 0.010063 -0.069991 0.210711
v 0.029374 -0.064321 0.210711
v 0.046306 -0.053440 0.210711
v 0.059486 -0.038229 0.210711
v 0.067846 -0.019922 0.210711
v 0.070711 -0.000000 0.210711
v 0.067846 0.019922 0.210711
v 0.059486 0.038229 0.210711
v 0.046306 0.053440 0.210711
v 0.029374 0.064321 0.210711
v 0.010063 0.069991 0.210711
v -0.010063 0.069991 0.210711
v -0.029374 0.064321 0.210711
v -0.046306 0.053440 0.210711
v -0.059486 0.038229 0.210711
v -0.067846 0.019922 0.210711
v -0.038268 0.000000 0.232388
v -0.036718 -0.010781 0.232388
v -0.032193 -0.020689 0.232388
v -0.025060 -0.028921 0.232388
v -0.015897 -0.034810 0.232388
v -0.005446 -0.037879 0.232388
v 0.005446 -0.037879 0.232388
v 0.015897 -0.034810 0.232388
v 0.025060 -0.028921 0.232388
v 0.032193 -0.020689 0.232388
v 0.036718 -0.010781 0.232388
v 0.038268 -0.000000 0.232388
v 0.036718 0.010781 0.232388
v 0.032193 0.020689 0.232388
v 0.025060 0.028921 0.232388
v 0.015897 0.034810 0.232388
v 0.005446 0.037879 0.232388
v -0.005446 0.037879 0.232388
v -0.015897 0.034810 0.232388
v -0.025060 0.028921 0.232388
v -0.032193 0.020689 0.232388
v -0.036718 0.010781 0.232388
v -0.000000 0.000000 0.240000
v -0.092388 0.000000 -0.038268
v -0.088646 -0.026029 -0.038268
v -0.077722 -0.049949 -0.038268
v -0.060501 -0.069822 -0.038268
v -0.038379 -0.084039 -0.038268
v -0.013148 -0.091448 -0.038268
v 0.013148 -0.091448 -0.038268
v 0.038379 -0.084039 -0.038268
v 0.060501 -0.069822 -0.038268
v 0.077722 -0.049949 -0.038268
v 0.088646 -0.026029 -0.038268
v 0.092388 -0.000000 -0.038268
v 0.088646 0.026029 -0.038268
v 0.077722 0.049949 -0.038268
v 0.060501 0.069822 -0.038268
v 0.038379 0.084039 -0.038268
v 0.013148 0.091448 -0.038268
v -0.013148 0.091448 -0.038268
v -0.038379 0.084039 -0.038268
v -0.060501 0.069822 -0.038268
v -0.077722 0.049949 -0.038268
v -0.088646 0.026029 -0.038268
v -0.070711 0.000000 -0.070711
v -0.067846 -0.019922 -0.070711
v -0.059486 -0.038229 -0.070711
v -0.046306 -0.053440 -0.070711
v -0.029374 -0.064321 -0.070711
v -0.010063 -0.069991 -0.070711
v 0.010063 -0.069991 -0.070711
v 0.029374 -0.064321 -0.070711
v 0.046306 -0.053440 -0.070711
v 0.059486 -0.038229 -0.070711
v 0.067846 -0.019922 -0.070711
v 0.070711 -0.000000 -0.070711
v 0.067846 0.019922 -0.070711
v 0.059486 0.038229 -0.070711
v 0.046306 0.053440 -0.070711
v 0.029374 0.064321 -0.070711
v 0.010063 0.069991 -0.070711
v -0.010063 0.069991 -0.070711
v -0.029374 0.064321 -0.070711
v -0.046306 0.053440 -0.070711
v -0.059486 0.038229 -0.070711
v -0.067846 0.019922 -0.070711
v -0.038268 0.000000 -0.092388
v -0.036718 -0.010781 -0.092388
v -0.032193 -0.020689 -0.092388
v -0.025060 -0.028921 -0.092388
v -0.015897 -0.034810 -0.092388
v -0.005446 -0.037879 -0.092388
v 0.005446 -0.037879 -0.092388
v 0.015897 -0.034810 -0.092388
v 0.025060 -0.028921 -0.092388
v 0.032193 -0.020689 -0.092388
v 0.036718 -0.010781 -0.092388
v 0.038268 -0.000000 -0.092388
v 0.036718 0.010781 -0.092388
v 0.032193 0.020689 -0.092388
v 0.025060 0.028921 -0.092388
v 0.015897 0.034810 -0.092388
v 0.005446 0.037879 -0.092388
v -0.005446 0.037879 -0.092388
v -0.015897 0.034810 -0.092388
v -0.025060 0.028921 -0.092388
v -0.032193 0.020689 -0.092388
v -0.036718 0.010781 -0.092388
v -0.000000 0.000000 -0.100000
f 266 267 289
f 266 289 288
f 267 268 290
f 267 290 289
f 268 269 291
f 268 291 290
f 269 270 292
f 269 292 291
f 270 271 293
f 270 293 292
f 271 272 294
f 271 294 293
f 272 273 295
f 272 295 294
f 273 274 296
f 273 296 295
f 274 275 297
f 274 297 296
f 275 276 298
f 275 298 297
f 276 277 299
f 276 299 298
f 277 278 300
f 277 300 299
f 278 279 301
f 278 301 300
f 279 280 302
f 279 302 301
f 280 281 303
f 280 303 302
f 281 282 304
f 281 304 303
f 282 283 305
f 282 305 304
f 283 284 306
f 283 306 305
f 284 285 307
f 284 307 306
f 285 286 308
f 285 308 307
f 286 287 309
f 286 309 308
f 287 266 288
f 287 288 309
f 288 289 311
f 288 311 310
f 289 290 312
f 289 312 311
f 290 291 313
f 290 313 312
f 291 292 314
f 291 314 313
f 292 293 315
f 292 315 314
f 293 294 316
f 293 316 315
f 294 295 317
f 294 317 316
f 295 296 318
f 295 318 317
f 296 297 319
f 296 319 318
f 297 298 320
f 297 320 319
f 298 299 321
f 298 321 320
f 299 300 322
f 299 322 321
f 300 301 323
f 300 323 322
f 301 302 324
f 301 324 323
f 302 303 325
f 302 325 324
f 303 304 326
f 303 326 325
f 304 305 327
f 304 327 326
f 305 306 328
f 305 328 327
f 306 307 329
f 306 329 328
f 307 308 330
f 307 330 329
f 308 309 331
f 308 331 330
f 309 288 310
f 309 310 331
f 310 311 332
f 310 332 332
f 311 312 332
f 311 332 332
f 312 313 332
f 312 332 332
f 313 314 332
f 313 332 332
f 314 315 332
f 314 332 332
f 315 316 332
f 315 332 332
f 316 317 332
f 316 332 332
f 317 318 332
f 317 332 332
f 318 319 332
f 318 332 332
f 319 320 332
f 319 332 332
f 320 321 332
f 320 332 332
f 321 322 332
f 321 332 332
f 322 323 332
f 322 332 332
f 323 324 332
f 323 332 332
f 324 325 332
f 324 332 332
f 325 326 332
f 325 332 332
f 326 327 332
f 326 332 332
f 327 328 332
f 327 332 332
f 328 329 332
f 328 332 332
f 329 330 332
f 329 332 332
f 330 331 332
f 330 332 332
f 331 310 332
f 331 332 332
f 332 332 2
f 332 2 1
f 332 332 3
f 332 3 2
f 332 332 4
f 332 4 3
f 332 332 5
f 332 5 4
f 332 332 6
f 332 6 5
f 332 332 7
f 332 7 6
f 332 332 8
f 332 8 7
f 332 332 9
f 332 9 8
f 332 332 10
f 332 10 9
f 332 332 11
f 332 11 10
f 332 332 12
f 332 12 11
f 332 332 13
f 332 13 12
f 332 332 14
f 332 14 13
f 332 332 15
f 332 15 14
f 332 332 16
f 332 16 15
f 332 332 17
f 332 17 16
f 332 332 18
f 332 18 17
f 332 332 19
f 332 19 18
f 332 332 20
f 332 20 19
f 332 332 21
f 332 21 20
f 332 332 22
f 332 22 21
f 332 332 1
f 332 1 22
f 1 2 24
f 1 24 23
f 2 3 25
f 2 25 24
f 3 4 26
f 3 26 25
f 4 5 27
f 4 27 26
f 5 6 28
f 5 28 27
f 6 7 29
f 6 29 28
f 7 8 30
f 7 30 29
f 8 9 31
f 8 31 30
f 9 10 32
f 9 32 31
f 10 11 33
f 10 33 32
f 11 12 34
f 11 34 33
f 12 13 35
f 12 35 34
f 13 14 36
f 13 36 35
f 14 15 37
f 14 37 36
f 15 16 38
f 15 38 37
f 16 17 39
f 16 39 38
f 17 18 40
f 17 40 39
f 18 19 41
f 18 41 40
f 19 20 42
f 19 42 41
f 20 21 43
f 20 43 42
f 21 22 44
f 21 44 43
f 22 1 23
f 22 23 44
f 23 24 46
f 23 46 45
f 24 25 47
f 24 47 46
f 25 26 48
f 25 48 47
f 26 27 49
f 26 49 48
f 27 28 50
f 27 50 49
f 28 29 51
f 28 51 50
f 29 30 52
f 29 52 51
f 30 31 53
f 30 53 52
f 31 32 54
f 31 54 53
f 32 33 55
f 32 55 54
f 33 34 56
f 33 56 55
f 34 35 57
f 34 57 56
f 35 36 58
f 35 58 57
f 36 37 59
f 36 59 58
f 37 38 60
f 37 60 59
f 38 39 61
f 38 61 60
f 39 40 62
f 39 62 61
f 40 41 63
f 40 63 62
f 41 42 64
f 41 64 63
f 42 43 65
f 42 65 64
f 43 44 66
f 43 66 65
f 44 23 45
f 44 45 66
f 45 46 68
f 45 68 67
f 46 47 69
f 46 69 68
f 47 48 70
f 47 70 69
f 48 49 71
f 48 71 70
f 49 50 72
f 49 72 71
f 50 51 73
f 50 73 72
f 51 52 74
f 51 74 73
f 52 53 75
f 52 75 74
f 53 54 76
f 53 76 75
f 54 55 77
f 54 77 76
f 55 56 78
f 55 78 77
f 56 57 79
f 56 79 78
f 57 58 80
f 57 80 79
f 58 59 81
f 58 81 80
f 59 60 82
f 59 82 81
f 60 61 83
f 60 83 82
f 61 62 84
f 61 84 83
f 62 63 85
f 62 85 84
f 63 64 86
f 63 86 85
f 64 65 87
f 64 87 86
f 65 66 88
f 65 88 87
f 66 45 67
f 66 67 88
f 67 68 90
f 67 90 89
f 68 69 91
f 68 91 90
f 69 70 92
f 69 92 91
f 70 71 93
f 70 93 92
f 71 72 94
f 71 94 93
f 72 73 95
f 72 95 94
f 73 74 96
f 73 96 95
f 74 75 97
f 74 97 96
f 75 76 98
f 75 98 97
f 76 77 99
f 76 99 98
f 77 78 100
f 77 100 99
f 78 79 101
f 78 101 100
f 79 80 102
f 79 102 101
f 80 81 103
f 80 103 102
f 81 82 104
f 81 104 103
f 82 83 105
f 82 105 104
f 83 84 106
f 83 106 105
f 84 85 107
f 84 107 106
f 85 86 108
f 85 108 107
f 86 87 109
f 86 109 108
f 87 88 110
f 87 110 109
f 88 67 89
f 88 89 110
f 89 90 112
f 89 112 111
f 90 91 113
f 90 113 112
f 91 92 114
f 91 114 113
f 92 93 115
f 92 115 114
f 93 94 116
f 93 116 115
f 94 95 117
f 94 117 116
f 95 96 118
f 95 118 117
f 96 97 119
f 96 119 118
f 97 98 120
f 97 120 119
f 98 99 121
f 98 121 120
f 99 100 122
f 99 122 121
f 100 101 123
f 100 123 122
f 101 102 124
f 101 124 123
f 102 103 125
f 102 125 124
f 103 104 126
f 103 126 125
f 104 105 127
f 104 127 126
f 105 106 128
f 105 128 127
f 106 107 129
f 106 129 128
f 107 108 130
f 107 130 129
f 108 109 131
f 108 131 130
f 109 110 132
f 109 132 131
f 110 89 111
f 110 111 132
f 111 112 134
f 111 134 133
f 112 113 135
f 112 135 134
f 113 114 136
f 113 136 135
f 114 115 137
f 114 137 136
f 115 116 138
f 115 138 137
f 116 117 139
f 116 139 138
f 117 118 140
f 117 140 139
f 118 119 141
f 118 141 140
f 119 120 142
f 119 142 141
f 120 121 143
f 120 143 142
f 121 122 144
f 121 144 143
f 122 123 145
f 122 145 144
f 123 124 146
f 123 146 145
f 124 125 147
f 124 147 146
f 125 126 148
f 125 148 147
f 126 127 149
f 126 149 148
f 127 128 150
f 127 150 149
f 128 129 151
f 128 151 150
f 129 130 152
f 129 152 151
f 130 131 153
f 130 153 152
f 131 132 154
f 131 154 153
f 132 111 133
f 132 133 154
f 133 134 156
f 133 156 155
f 134 135 157
f 134 157 156
f 135 136 158
f 135 158 157
f 136 137 159
f 136 159 158
f 137 138 160
f 137 160 159
f 138 139 161
f 138 161 160
f 139 140 162
f 139 162 161
f 140 141 163
f 140 163 162
f 141 142 164
f 141 164 163
f 142 143 165
f 142 165 164
f 143 144 166
f 143 166 165
f 144 145 167
f 144 167 166
f 145 146 168
f 145 168 167
f 146 147 169
f 146 169 168
f 147 148 170
f 147 170 169
f 148 149 171
f 148 171 170
f 149 150 172
f 149 172 171
f 150 151 173
f 150 173 172
f 151 152 174
f 151 174 173
f 152 153 175
f 152 175 174
f 153 154 176
f 153 176 175
f 154 133 155
f 154 155 176
f 155 156 178
f 155 178 177
f 156 157 179
f 156 179 178
f 157 158 180
f 157 180 179
f 158 159 181
f 158 181 180
f 159 160 182
f 159 182 181
f 160 161 183
f 160 183 182
f 161 162 184
f 161 184 183
f 162 163 185
f 162 185 184
f 163 164 186
f 163 186 185
f 164 165 187
f 164 187 186
f 165 166 188
f 165 188 187
f 166 167 189
f 166 189 188
f 167 168 190
f 167 190 189
f 168 169 191
f 168 191 190
f 169 170 192
f 169 192 191
f 170 171 193
f 170 193 192
f 171 172 194
f 171 194 193
f 172 173 195
f 172 195 194
f 173 174 196
f 173 196 195
f 174 175 197
f 174 197 196
f 175 176 198
f 175 198 197
f 176 155 177
f 176 177 198
f 177 178 200
f 177 200 199
f 178 179 201
f 178 201 200
f 179 180 202
f 179 202 201
f 180 181 203
f 180 203 202
f 181 182 204
f 181 204 203
f 182 183 205
f 182 205 204
f 183 184 206
f 183 206 205
f 184 185 207
f 184 207 206
f 185 186 208
f 185 208 207
f 186 187 209
f 186 209 208
f 187 188 210
f 187 210 209
f 188 189 211
f 188 211 210
f 189 190 212
f 189 212 211
f 190 191 213
f 190 213 212
f 191 192 214
f 191 214 213
f 192 193 215
f 192 215 214
f 193 194 216
f 193 216 215
f 194 195 217
f 194 217 216
f 195 196 218
f 195 218 217
f 196 197 219
f 196 219 218
f 197 198 220
f 197 220 219
f 198 177 199
f 198 199 220
f 199 200 222
f 199 222 221
f 200 201 223
f 200 223 222
f 201 202 224
f 201 224 223
f 202 203 225
f 202 225 224
f 203 204 226
f 203 226 225
f 204 205 227
f 204 227 226
f 205 206 228
f 205 228 227
f 206 207 229
f 206 229 228
f 207 208 230
f 207 230 229
f 208 209 231
f 208 231 230
f 209 210 232
f 209 232 231
f 210 211 233
f 210 233 232
f 211 212 234
f 211 234 233
f 212 213 235
f 212 235 234
f 213 214 236
f 213 236 235
f 214 215 237
f 214 237 236
f 215 216 238
f 215 238 237
f 216 217 239
f 216 239 238
f 217 218 240
f 217 240 239
f 218 219 241
f 218 241 240
f 219 220 242
f 219 242 241
f 220 199 221
f 220 221 242
f 221 222 244
f 221 244 243
f 222 223 245
f 222 245 244
f 223 224 246
f 223 246 245
f 224 225 247
f 224 247 246
f 225 226 248
f 225 248 247
f 226 227 249
f 226 249 248
f 227 228 250
f 227 250 249
f 228 229 251
f 228 251 250
f 229 230 252
f 229 252 251
f 230 231 253
f 230 253 252
f 231 232 254
f 231 254 253
f 232 233 255
f 232 255 254
f 233 234 256
f 233 256 255
f 234 235 257
f 234 257 256
f 235 236 258
f 235 258 257
f 236 237 259
f 236 259 258
f 237 238 260
f 237 260 259
f 238 239 261
f 238 261 260
f 239 240 262
f 239 262 261
f 240 241 263
f 240 263 262
f 241 242 264
f 241 264 263
f 242 221 243
f 242 243 264
f 243 244 265
f 243 265 265
f 244 245 265
f 244 265 265
f 245 246 265
f 245 265 265
f 246 247 265
f 246 265 265
f 247 248 265
f 247 265 265
f 248 249 265
f 248 265 265
f 249 250 265
f 249 265 265
f 250 251 265
f 250 265 265
f 251 252 265
f 251 265 265
f 252 253 265
f 252 265 265
f 253 254 265
f 253 265 265
f 254 255 265
f 254 265 265
f 255 256 265
f 255 265 265
f 256 257 265
f 256 265 265
f 257 258 265
f 257 265 265
f 258 259 265
f 258 265 265
f 259 260 265
f 259 265 265
f 260 261 265
f 260 265 265
f 261 262 265
f 261 265 265
f 262 263 265
f 262 265 265
f 263 264 265
f 263 265 265
f 264 243 265
f 264 265 265
