# generated by generate_human_meshes.py
v 0.058000 0.000000 0.000000
v 0.055161 -0.017923 0.000000
v 0.046923 -0.034092 0.000000
v 0.034092 -0.046923 0.000000
v 0.017923 -0.055161 0.000000
v 0.000000 -0.058000 0.000000
v -0.017923 -0.055161 0.000000
v -0.034092 -0.046923 0.000000
v -0.046923 -0.034092 0.000000
v -0.055161 -0.017923 0.000000
v -0.058000 -0.000000 0.000000
v -0.055161 0.017923 0.000000
v -0.046923 0.034092 0.000000
v -0.034092 0.046923 0.000000
v -0.017923 0.055161 0.000000
v -0.000000 0.058000 0.000000
v 0.017923 0.055161 0.000000
v 0.034092 0.046923 0.000000
v 0.046923 0.034092 0.000000
v 0.055161 0.017923 0.000000
v 0.058000 0.000000 -0.037778
v 0.055161 -0.017923 -0.037778
v 0.046923 -0.034092 -0.037778
v 0.034092 -0.046923 -0.037778
v 0.017923 -0.055161 -0.037778
v 0.000000 -0.058000 -0.037778
v -0.017923 -0.055161 -0.037778
v -0.034092 -0.046923 -0.037778
v -0.046923 -0.034092 -0.037778
v -0.055161 -0.017923 -0.037778
v -0.058000 -0.000000 -0.037778
v -0.055161 0.017923 -0.037778
v -0.046923 0.034092 -0.037778
v -0.034092 0.046923 -0.037778
v -0.017923 0.055161 -0.037778
v -0.000000 0.058000 -0.037778
v 0.017923 0.055161 -0.037778
v 0.034092 0.046923 -0.037778
v 0.046923 0.034092 -0.037778
v 0.055161 0.017923 -0.037778
v 0.058000 0.000000 -0.075556
v 0.055161 -0.017923 -0.075556
v 0.046923 -0.034092 -0.075556
v 0.034092 -0.046923 -0.075556
v 0.017923 -0.055161 -0.075556
v 0.000000 -0.058000 -0.075556
v -0.017923 -0.055161 -0.075556
v -0.034092 -0.046923 -0.075556
v -0.046923 -0.034092 -0.075556
v -0.055161 -0.017923 -0.075556
v -0.058000 -0.000000 -0.075556
v -0.055161 0.017923 -0.075556
v -0.046923 0.034092 -0.075556
v -0.034092 0.046923 -0.075556
v -0.017923 0.055161 -0.075556
v -0.000000 0.058000 -0.075556
v 0.017923 0.055161 -0.075556
v 0.034092 0.046923 -0.075556
v 0.046923 0.034092 -0.075556
v 0.055161 0.017923 -0.075556
v 0.058000 0.000000 -0.113333
v 0.055161 -0.017923 -0.113333
v 0.046923 -0.034092 -0.113333
v 0.034092 -0.046923 -0.113333
v 0.017923 -0.055161 -0.113333
v 0.000000 -0.058000 -0.113333
v -0.017923 -0.055161 -0.113333
v -0.034092 -0.046923 -0.113333
v -0.046923 -0.034092 -0.113333
v -0.055161 -0.017923 -0.113333
v -0.058000 -0.000000 -0.113333
v -0.055161 0.017923 -0.113333
v -0.046923 0.034092 -0.113333
v -0.034092 0.046923 -0.113333
v -0.017923 0.055161 -0.113333
v -0.000000 0.058000 -0.113333
v 0.017923 0.055161 -0.113333
v 0.034092 0.046923 -0.113333
v 0.046923 0.034092 -0.113333
v 0.055161 0.017923 -0.113333
v 0.058000 0.000000 -0.151111
v 0.055161 -0.017923 -0.151111
v 0.046923 -0.034092 -0.151111
v 0.034092 -0.046923 -0.151111
v 0.017923 -0.055161 -0.151111
v 0.000000 -0.058000 -0.151111
v -0.017923 -0.055161 -0.151111
v -0.034092 -0.046923 -0.151111
v -0.046923 -0.034092 -0.151111
v -0.055161 -0.017923 -0.151111
v -0.058000 -0.000000 -0.151111
v -0.055161 0.017923 -0.151111
v -0.046923 0.034092 -0.151111
v -0.034092 0.046923 -0.151111
v -0.017923 0.055161 -0.151111
v -0.000000 0.058000 -0.151111
v 0.017923 0.055161 -0.151111
v 0.034092 0.046923 -0.151111
v 0.046923 0.034092 -0.151111
v 0.055161 0.017923 -0.151111
v 0.058000 0.000000 -0.188889
v 0.055161 -0.017923 -0.188889
v 0.046923 -0.034092 -0.188889
v 0.034092 -0.046923 -0.188889
v 0.017923 -0.055161 -0.188889
v 0.000000 -0.058000 -0.188889
v -0.017923 -0.055161 -0.188889
v -0.034092 -0.046923 -0.188889
v -0.046923 -0.034092 -0.188889
v -0.055161 -0.017923 -0.188889
v -0.058000 -0.000000 -0.188889
v -0.055161 0.017923 -0.188889
v -0.046923 0.034092 -0.188889
v -0.034092 0.046923 -0.188889
v -0.017923 0.055161 -0.188889
v -0.000000 0.058000 -0.188889
v 0.017923 0.055161 -0.188889
v 0.034092 0.046923 -0.188889
v 0.046923 0.034092 -0.188889
v 0.055161 0.017923 -0.188889
v 0.058000 0.000000 -0.226667
v 0.055161 -0.017923 -0.226667
v 0.046923 -0.034092 -0.226667
v 0.034092 -0.046923 -0.226667
v 0.017923 -0.055161 -0.226667
v 0.000000 -0.058000 -0.226667
v -0.017923 -0.055161 -0.226667
v -0.034092 -0.046923 -0.226667
v -0.046923 -0.034092 -0.226667
v -0.055161 -0.017923 -0.226667
v -0.058000 -0.000000 -0.226667
v -0.055161 0.017923 -0.226667
v -0.046923 0.034092 -0.226667
v -0.034092 0.046923 -0.226667
v -0.017923 0.055161 -0.226667
v -0.000000 0.058000 -0.226667
v 0.017923 0.055161 -0.226667
v 0.034092 0.046923 -0.226667
v 0.046923 0.034092 -0.226667
v 0.055161 0.017923 -0.226667
v 0.058000 0.000000 -0.264444
v 0.055161 -0.017923 -0.264444
v 0.046923 -0.034092 -0.264444
v 0.034092 -0.046923 -0.264444
v 0.017923 -0.055161 -0.264444
v 0.000000 -0.058000 -0.264444
v -0.017923 -0.055161 -0.264444
v -0.034092 -0.046923 -0.264444
v -0.046923 -0.034092 -0.264444
v -0.055161 -0.017923 -0.264444
v -0.058000 -0.000000 -0.264444
v -0.055161 0.017923 -0.264444
v -0.046923 0.034092 -0.264444
v -0.034092 0.046923 -0.264444
v -0.017923 0.055161 -0.264444
v -0.000000 0.058000 -0.264444
v 0.017923 0.055161 -0.264444
v 0.034092 0.046923 -0.264444
v 0.046923 0.034092 -0.264444
v 0.055161 0.017923 -0.264444
v 0.058000 0.000000 -0.302222
v 0.055161 -0.017923 -0.302222
v 0.046923 -0.034092 -0.302222
v 0.034092 -0.046923 -0.302222
v 0.017923 -0.055161 -0.302222
v 0.000000 -0.058000 -0.302222
v -0.017923 -0.055161 -0.302222
v -0.034092 -0.046923 -0.302222
v -0.046923 -0.034092 -0.302222
v -0.055161 -0.017923 -0.302222
v -0.058000 -0.000000 -0.302222
v -0.055161 0.017923 -0.302222
v -0.046923 0.034092 -0.302222
v -0.034092 0.046923 -0.302222
v -0.017923 0.055161 -0.302222
v -0.000000 0.058000 -0.302222
v 0.017923 0.055161 -0.302222
v 0.034092 0.046923 -0.302222
v 0.046923 0.034092 -0.302222
v 0.055161 0.017923 -0.302222
v 0.058000 0.000000 -0.340000
v 0.055161 -0.017923 -0.340000
v 0.046923 -0.034092 -0.340000
v 0.034092 -0.046923 -0.340000
v 0.017923 -0.055161 -0.340000
v 0.000000 -0.058000 -0.340000
v -0.017923 -0.055161 -0.340000
v -0.034092 -0.046923 -0.340000
v -0.046923 -0.034092 -0.340000
v -0.055161 -0.017923 -0.340000
v -0.058000 -0.000000 -0.340000
v -0.055161 0.017923 -0.340000
v -0.046923 0.034092 -0.340000
v -0.034092 0.046923 -0.340000
v -0.017923 0.055161 -0.340000
v -0.000000 0.058000 -0.340000
v 0.017923 0.055161 -0.340000
v 0.034092 0.046923 -0.340000
v 0.046923 0.034092 -0.340000
v 0.055161 0.017923 -0.340000
v 0.053585 0.000000 -0.362196
v 0.050962 -0.016559 -0.362196
v 0.043351 -0.031496 -0.362196
v 0.031496 -0.043351 -0.362196
v 0.016559 -0.050962 -0.362196
v 0.000000 -0.053585 -0.362196
v -0.016559 -0.050962 -0.362196
v -0.031496 -0.043351 -0.362196
v -0.043351 -0.031496 -0.362196
v -0.050962 -0.016559 -0.362196
v -0.053585 -0.000000 -0.362196
v -0.050962 0.016559 -0.362196
v -0.043351 0.031496 -0.362196
v -0.031496 0.043351 -0.362196
v -0.016559 0.050962 -0.362196
v -0.000000 0.053585 -0.362196
v 0.016559 0.050962 -0.362196
v 0.031496 0.043351 -0.362196
v 0.043351 0.031496 -0.362196
v 0.050962 0.016559 -0.362196
v 0.041012 0.000000 -0.381012
v 0.039005 -0.012673 -0.381012
v 0.033180 -0.024106 -0.381012
v 0.024106 -0.033180 -0.381012
v 0.012673 -0.039005 -0.381012
v 0.000000 -0.041012 -0.381012
v -0.012673 -0.039005 -0.381012
v -0.024106 -0.033180 -0.381012
v -0.033180 -0.024106 -0.381012
v -0.039005 -0.012673 -0.381012
v -0.041012 -0.000000 -0.381012
v -0.039005 0.012673 -0.381012
v -0.033180 0.024106 -0.381012
v -0.024106 0.033180 -0.381012
v -0.012673 0.039005 -0.381012
v -0.000000 0.041012 -0.381012
v 0.012673 0.039005 -0.381012
v 0.024106 0.033180 -0.381012
v 0.033180 0.024106 -0.381012
v 0.039005 0.012673 -0.381012
v 0.022196 0.000000 -0.393585
v 0.021109 -0.006859 -0.393585
v 0.017957 -0.013046 -0.393585
v 0.013046 -0.017957 -0.393585
v 0.006859 -0.021109 -0.393585
v 0.000000 -0.022196 -0.393585
v -0.006859 -0.021109 -0.393585
v -0.013046 -0.017957 -0.393585
v -0.017957 -0.013046 -0.393585
v -0.021109 -0.006859 -0.393585
v -0.022196 -0.000000 -0.393585
v -0.021109 0.006859 -0.393585
v -0.017957 0.013046 -0.393585
v -0.013046 0.017957 -0.393585
v -0.006859 0.021109 -0.393585
v -0.000000 0.022196 -0.393585
v 0.006859 0.021109 -0.393585
v 0.013046 0.017957 -0.393585
v 0.017957 0.013046 -0.393585
v 0.021109 0.006859 -0.393585
v 0.000000 0.000000 -0.398000
v 0.053585 0.000000 0.022196
v 0.050962 -0.016559 0.022196
v 0.043351 -0.031496 0.022196
v 0.031496 -0.043351 0.022196
v 0.016559 -0.050962 0.022196
v 0.000000 -0.053585 0.022196
v -0.016559 -0.050962 0.022196
v -0.031496 -0.043351 0.022196
v -0.043351 -0.031496 0.022196
v -0.050962 -0.016559 0.022196
v -0.053585 -0.000000 0.022196
v -0.050962 0.016559 0.022196
v -0.043351 0.031496 0.022196
v -0.031496 0.043351 0.022196
v -0.016559 0.050962 0.022196
v -0.000000 0.053585 0.022196
v 0.016559 0.050962 0.022196
v 0.031496 0.043351 0.022196
v 0.043351 0.031496 0.022196
v 0.050962 0.016559 0.022196
v 0.041012 0.000000 0.041012
v 0.039005 -0.012673 0.041012
v 0.033180 -0.024106 0.041012
v 0.024106 -0.033180 0.041012
v 0.012673 -0.039005 0.041012
v 0.000000 -0.041012 0.041012
v -0.012673 -0.039005 0.041012
v -0.024106 -0.033180 0.041012
v -0.033180 -0.024106 0.041012
v -0.039005 -0.012673 0.041012
v -0.041012 -0.000000 0.041012
v -0.039005 0.012673 0.041012
v -0.033180 0.024106 0.041012
v -0.024106 0.033180 0.041012
v -0.012673 0.039005 0.041012
v -0.000000 0.041012 0.041012
v 0.012673 0.039005 0.041012
v 0.024106 0.033180 0.041012
v 0.033180 0.024106 0.041012
v 0.039005 0.012673 0.041012
v 0.022196 0.000000 0.053585
v 0.021109 -0.006859 0.053585
v 0.017957 -0.013046 0.053585
v 0.013046 -0.017957 0.053585
v 0.006859 -0.021109 0.053585
v 0.000000 -0.022196 0.053585
v -0.006859 -0.021109 0.053585
v -0.013046 -0.017957 0.053585
v -0.017957 -0.013046 0.053585
v -0.021109 -0.006859 0.053585
v -0.022196 -0.000000 0.053585
v -0.021109 0.006859 0.053585
v -0.017957 0.013046 0.053585
v -0.013046 0.017957 0.053585
v -0.006859 0.021109 0.053585
v -0.000000 0.022196 0.053585
v 0.006859 0.021109 0.053585
v 0.013046 0.017957 0.053585
v 0.017957 0.013046 0.053585
v 0.021109 0.006859 0.053585
v 0.000000 0.000000 0.058000
f 262 263 283
f 262 283 282
f 263 264 284
f 263 284 283
f 264 265 285
f 264 285 284
f 265 266 286
f 265 286 285
f 266 267 287
f 266 287 286
f 267 268 288
f 267 288 287
f 268 269 289
f 268 289 288
f 269 270 290
f 269 290 289
f 270 271 291
f 270 291 290
f 271 272 292
f 271 292 291
f 272 273 293
f 272 293 292
f 273 274 294
f 273 294 293
f 274 275 295
f 274 295 294
f 275 276 296
f 275 296 295
f 276 277 297
f 276 297 296
f 277 278 298
f 277 298 297
f 278 279 299
f 278 299 298
f 279 280 300
f 279 300 299
f 280 281 301
f 280 301 300
f 281 262 282
f 281 282 301
f 282 283 303
f 282 303 302
f 283 284 304
f 283 304 303
f 284 285 305
f 284 305 304
f 285 286 306
f 285 306 305
f 286 287 307
f 286 307 306
f 287 288 308
f 287 308 307
f 288 289 309
f 288 309 308
f 289 290 310
f 289 310 309
f 290 291 311
f 290 311 310
f 291 292 312
f 291 312 311
f 292 293 313
f 292 313 312
f 293 294 314
f 293 314 313
f 294 295 315
f 294 315 314
f 295 296 316
f 295 316 315
f 296 297 317
f 296 317 316
f 297 298 318
f 297 318 317
f 298 299 319
f 298 319 318
f 299 300 320
f 299 320 319
f 300 301 321
f 300 321 320
f 301 282 302
f 301 302 321
f 302 303 322
f 302 322 322
f 303 304 322
f 303 322 322
f 304 305 322
f 304 322 322
f 305 306 322
f 305 322 322
f 306 307 322
f 306 322 322
f 307 308 322
f 307 322 322
f 308 309 322
f 308 322 322
f 309 310 322
f 309 322 322
f 310 311 322
f 310 322 322
f 311 312 322
f 311 322 322
f 312 313 322
f 312 322 322
f 313 314 322
f 313 322 322
f 314 315 322
f 314 322 322
f 315 316 322
f 315 322 322
f 316 317 322
f 316 322 322
f 317 318 322
f 317 322 322
f 318 319 322
f 318 322 322
f 319 320 322
f 319 322 322
f 320 321 322
f 320 322 322
f 321 302 322
f 321 322 322
f 322 322 2
f 322 2 1
f 322 322 3
f 322 3 2
f 322 322 4
f 322 4 3
f 322 322 5
f 322 5 4
f 322 322 6
f 322 6 5
f 322 322 7
f 322 7 6
f 322 322 8
f 322 8 7
f 322 322 9
f 322 9 8
f 322 322 10
f 322 10 9
f 322 322 11
f 322 11 10
f 322 322 12
f 322 12 11
f 322 322 13
f 322 13 12
f 322 322 14
f 322 14 13
f 322 322 15
f 322 15 14
f 322 322 16
f 322 16 15
f 322 322 17
f 322 17 16
f 322 322 18
f 322 18 17
f 322 322 19
f 322 19 18
f 322 322 20
f 322 20 19
f 322 322 1
f 322 1 20
f 1 2 22
f 1 22 21
f 2 3 23
f 2 23 22
f 3 4 24
f 3 24 23
f 4 5 25
f 4 25 24
f 5 6 26
f 5 26 25
f 6 7 27
f 6 27 26
f 7 8 28
f 7 28 27
f 8 9 29
f 8 29 28
f 9 10 30
f 9 30 29
f 10 11 31
f 10 31 30
f 11 12 32
f 11 32 31
f 12 13 33
f 12 33 32
f 13 14 34
f 13 34 33
f 14 15 35
f 14 35 34
f 15 16 36
f 15 36 35
f 16 17 37
f 16 37 36
f 17 18 38
f 17 38 37
f 18 19 39
f 18 39 38
f 19 20 40
f 19 40 39
f 20 1 21
f 20 21 40
f 21 22 42
f 21 42 41
f 22 23 43
f 22 43 42
f 23 24 44
f 23 44 43
f 24 25 45
f 24 45 44
f 25 26 46
f 25 46 45
f 26 27 47
f 26 47 46
f 27 28 48
f 27 48 47
f 28 29 49
f 28 49 48
f 29 30 50
f 29 50 49
f 30 31 51
f 30 51 50
f 31 32 52
f 31 52 51
f 32 33 53
f 32 53 52
f 33 34 54
f 33 54 53
f 34 35 55
f 34 55 54
f 35 36 56
f 35 56 55
f 36 37 57
f 36 57 56
f 37 38 58
f 37 58 57
f 38 39 59
f 38 59 58
f 39 40 60
f 39 60 59
f 40 21 41
f 40 41 60
f 41 42 62
f 41 62 61
f 42 43 63
f 42 63 62
f 43 44 64
f 43 64 63
f 44 45 65
f 44 65 64
f 45 46 66
f 45 66 65
f 46 47 67
f 46 67 66
f 47 48 68
f 47 68 67
f 48 49 69
f 48 69 68
f 49 50 70
f 49 70 69
f 50 51 71
f 50 71 70
f 51 52 72
f 51 72 71
f 52 53 73
f 52 73 72
f 53 54 74
f 53 74 73
f 54 55 75
f 54 75 74
f 55 56 76
f 55 76 75
f 56 57 77
f 56 77 76
f 57 58 78
f 57 78 77
f 58 59 79
f 58 79 78
f 59 60 80
f 59 80 79
f 60 41 61
f 60 61 80
f 61 62 82
f 61 82 81
f 62 63 83
f 62 83 82
f 63 64 84
f 63 84 83
f 64 65 85
f 64 85 84
f 65 66 86
f 65 86 85
f 66 67 87
f 66 87 86
f 67 68 88
f 67 88 87
f 68 69 89
f 68 89 88
f 69 70 90
f 69 90 89
f 70 71 91
f 70 91 90
f 71 72 92
f 71 92 91
f 72 73 93
f 72 93 92
f 73 74 94
f 73 94 93
f 74 75 95
f 74 95 94
f 75 76 96
f 75 96 95
f 76 77 97
f 76 97 96
f 77 78 98
f 77 98 97
f 78 79 99
f 78 99 98
f 79 80 100
f 79 100 99
f 80 61 81
f 80 81 100
f 81 82 102
f 81 102 101
f 82 83 103
f 82 103 102
f 83 84 104
f 83 104 103
f 84 85 105
f 84 105 104
f 85 86 106
f 85 106 105
f 86 87 107
f 86 107 106
f 87 88 108
f 87 108 107
f 88 89 109
f 88 109 108
f 89 90 110
f 89 110 109
f 90 91 111
f 90 111 110
f 91 92 112
f 91 112 111
f 92 93 113
f 92 113 112
f 93 94 114
f 93 114 113
f 94 95 115
f 94 115 114
f 95 96 116
f 95 116 115
f 96 97 117
f 96 117 116
f 97 98 118
f 97 118 117
f 98 99 119
f 98 119 118
f 99 100 120
f 99 120 119
f 100 81 101
f 100 101 120
f 101 102 122
f 101 122 121
f 102 103 123
f 102 123 122
f 103 104 124
f 103 124 123
f 104 105 125
f 104 125 124
f 105 106 126
f 105 126 125
f 106 107 127
f 106 127 126
f 107 108 128
f 107 128 127
f 108 109 129
f 108 129 128
f 109 110 130
f 109 130 129
f 110 111 131
f 110 131 130
f 111 112 132
f 111 132 131
f 112 113 133
f 112 133 132
f 113 114 134
f 113 134 133
f 114 115 135
f 114 135 134
f 115 116 136
f 115 136 135
f 116 117 137
f 116 137 136
f 117 118 138
f 117 138 137
f 118 119 139
f 118 139 138
f 119 120 140
f 119 140 139
f 120 101 121
f 120 121 140
f 121 122 142
f 121 142 141
f 122 123 143
f 122 143 142
f 123 124 144
f 123 144 143
f 124 125 145
f 124 145 144
f 125 126 146
f 125 146 145
f 126 127 147
f 126 147 146
f 127 128 148
f 127 148 147
f 128 129 149
f 128 149 148
f 129 130 150
f 129 150 149
f 130 131 151
f 130 151 150
f 131 132 152
f 131 152 151
f 132 133 153
f 132 153 152
f 133 134 154
f 133 154 153
f 134 135 155
f 134 155 154
f 135 136 156
f 135 156 155
f 136 137 157
f 136 157 156
f 137 138 158
f 137 158 157
f 138 139 159
f 138 159 158
f 139 140 160
f 139 160 159
f 140 121 141
f 140 141 160
f 141 142 162
f 141 162 161
f 142 143 163
f 142 163 162
f 143 144 164
f 143 164 163
f 144 145 165
f 144 165 164
f 145 146 166
f 145 166 165
f 146 147 167
f 146 167 166
f 147 148 168
f 147 168 167
f 148 149 169
f 148 169 168
f 149 150 170
f 149 170 169
f 150 151 171
f 150 171 170
f 151 152 172
f 151 172 171
f 152 153 173
f 152 173 172
f 153 154 174
f 153 174 173
f 154 155 175
f 154 175 174
f 155 156 176
f 155 176 175
f 156 157 177
f 156 177 176
f 157 158 178
f 157 178 177
f 158 159 179
f 158 179 178
f 159 160 180
f 159 180 179
f 160 141 161
f 160 161 180
f 161 162 182
f 161 182 181
f 162 163 183
f 162 183 182
f 163 164 184
f 163 184 183
f 164 165 185
f 164 185 184
f 165 166 186
f 165 186 185
f 166 167 187
f 166 187 186
f 167 168 188
f 167 188 187
f 168 169 189
f 168 189 188
f 169 170 190
f 169 190 189
f 170 171 191
f 170 191 190
f 171 172 192
f 171 192 191
f 172 173 193
f 172 193 192
f 173 174 194
f 173 194 193
f 174 175 195
f 174 195 194
f 175 176 196
f 175 196 195
f 176 177 197
f 176 197 196
f 177 178 198
f 177 198 197
f 178 179 199
f 178 199 198
f 179 180 200
f 179 200 199
f 180 161 181
f 180 181 200
f 181 182 202
f 181 202 201
f 182 183 203
f 182 203 202
f 183 184 204
f 183 204 203
f 184 185 205
f 184 205 204
f 185 186 206
f 185 206 205
f 186 187 207
f 186 207 206
f 187 188 208
f 187 208 207
f 188 189 209
f 188 209 208
f 189 190 210
f 189 210 209
f 190 191 211
f 190 211 210
f 191 192 212
f 191 212 211
f 192 193 213
f 192 213 212
f 193 194 214
f 193 214 213
f 194 195 215
f 194 215 214
f 195 196 216
f 195 216 215
f 196 197 217
f 196 217 216
f 197 198 218
f 197 218 217
f 198 199 219
f 198 219 218
f 199 200 220
f 199 220 219
f 200 181 201
f 200 201 220
f 201 202 222
f 201 222 221
f 202 203 223
f 202 223 222
f 203 204 224
f 203 224 223
f 204 205 225
f 204 225 224
f 205 206 226
f 205 226 225
f 206 207 227
f 206 227 226
f 207 208 228
f 207 228 227
f 208 209 229
f 208 229 228
f 209 210 230
f 209 230 229
f 210 211 231
f 210 231 230
f 211 212 232
f 211 232 231
f 212 213 233
f 212 233 232
f 213 214 234
f 213 234 233
f 214 215 235
f 214 235 234
f 215 216 236
f 215 236 235
f 216 217 237
f 216 237 236
f 217 218 238
f 217 238 237
f 218 219 239
f 218 239 238
f 219 220 240
f 219 240 239
f 220 201 221
f 220 221 240
f 221 222 242
f 221 242 241
f 222 223 243
f 222 243 242
f 223 224 244
f 223 244 243
f 224 225 245
f 224 245 244
f 225 226 246
f 225 246 245
f 226 227 247
f 226 247 246
f 227 228 248
f 227 248 247
f 228 229 249
f 228 249 248
f 229 230 250
f 229 250 249
f 230 231 251
f 230 251 250
f 231 232 252
f 231 252 251
f 232 233 253
f 232 253 252
f 233 234 254
f 233 254 253
f 234 235 255
f 234 255 254
f 235 236 256
f 235 256 255
f 236 237 257
f 236 257 256
f 237 238 258
f 237 258 257
f 238 239 259
f 238 259 258
f 239 240 260
f 239 260 259
f 240 221 241
f 240 241 260
f 241 242 261
f 241 261 261
f 242 243 261
f 242 261 261
f 243 244 261
f 243 261 261
f 244 245 261
f 244 261 261
f 245 246 261
f 245 261 261
f 246 247 261
f 246 261 261
f 247 248 261
f 247 261 261
f 248 249 261
f 248 261 261
f 249 250 261
f 249 261 261
f 250 251 261
f 250 261 261
f 251 252 261
f 251 261 261
f 252 253 261
f 252 261 261
f 253 254 261
f 253 261 261
f 254 255 261
f 254 261 261
f 255 256 261
f 255 261 261
f 256 257 261
f 256 261 261
f 257 258 261
f 257 261 261
f 258 259 261
f 258 261 261
f 259 260 261
f 259 261 261
f 260 241 261
f 260 261 261
