# generated by generate_human_meshes.py
v -0.105000 0.000000 0.010000
v -0.101422 -0.027176 0.010000
v -0.090933 -0.052500 0.010000
v -0.074246 -0.074246 0.010000
v -0.052500 -0.090933 0.010000
v -0.027176 -0.101422 0.010000
v -0.000000 -0.105000 0.010000
v 0.027176 -0.101422 0.010000
v 0.052500 -0.090933 0.010000
v 0.074246 -0.074246 0.010000
v 0.090933 -0.052500 0.010000
v 0.101422 -0.027176 0.010000
v 0.105000 -0.000000 0.010000
v 0.101422 0.027176 0.010000
v 0.090933 0.052500 0.010000
v 0.074246 0.074246 0.010000
v 0.052500 0.090933 0.010000
v 0.027176 0.101422 0.010000
v 0.000000 0.105000 0.010000
v -0.027176 0.101422 0.010000
v -0.052500 0.090933 0.010000
v -0.074246 0.074246 0.010000
v -0.090933 0.052500 0.010000
v -0.101422 0.027176 0.010000
v -0.105000 0.000000 0.026000
v -0.101422 -0.027176 0.026000
v -0.090933 -0.052500 0.026000
v -0.074246 -0.074246 0.026000
v -0.052500 -0.090933 0.026000
v -0.027176 -0.101422 0.026000
v -0.000000 -0.105000 0.026000
v 0.027176 -0.101422 0.026000
v 0.052500 -0.090933 0.026000
v 0.074246 -0.074246 0.026000
v 0.090933 -0.052500 0.026000
v 0.101422 -0.027176 0.026000
v 0.105000 -0.000000 0.026000
v 0.101422 0.027176 0.026000
v 0.090933 0.052500 0.026000
v 0.074246 0.074246 0.026000
v 0.052500 0.090933 0.026000
v 0.027176 0.101422 0.026000
v 0.000000 0.105000 0.026000
v -0.027176 0.101422 0.026000
v -0.052500 0.090933 0.026000
v -0.074246 0.074246 0.026000
v -0.090933 0.052500 0.026000
v -0.101422 0.027176 0.026000
v -0.105000 0.000000 0.042000
v -0.101422 -0.027176 0.042000
v -0.090933 -0.052500 0.042000
v -0.074246 -0.074246 0.042000
v -0.052500 -0.090933 0.042000
v -0.027176 -0.101422 0.042000
v -0.000000 -0.105000 0.042000
v 0.027176 -0.101422 0.042000
v 0.052500 -0.090933 0.042000
v 0.074246 -0.074246 0.042000
v 0.090933 -0.052500 0.042000
v 0.101422 -0.027176 0.042000
v 0.105000 -0.000000 0.042000
v 0.101422 0.027176 0.042000
v 0.090933 0.052500 0.042000
v 0.074246 0.074246 0.042000
v 0.052500 0.090933 0.042000
v 0.027176 0.101422 0.042000
v 0.000000 0.105000 0.042000
v -0.027176 0.101422 0.042000
v -0.052500 0.090933 0.042000
v -0.074246 0.074246 0.042000
v -0.090933 0.052500 0.042000
v -0.101422 0.027176 0.042000
v -0.105000 0.000000 0.058000
v -0.101422 -0.027176 0.058000
v -0.090933 -0.052500 0.058000
v -0.074246 -0.074246 0.058000
v -0.052500 -0.090933 0.058000
v -0.027176 -0.101422 0.058000
v -0.000000 -0.105000 0.058000
v 0.027176 -0.101422 0.058000
v 0.052500 -0.090933 0.058000
v 0.074246 -0.074246 0.058000
v 0.090933 -0.052500 0.058000
v 0.101422 -0.027176 0.058000
v 0.105000 -0.000000 0.058000
v 0.101422 0.027176 0.058000
v 0.090933 0.052500 0.058000
v 0.074246 0.074246 0.058000
v 0.052500 0.090933 0.058000
v 0.027176 0.101422 0.058000
v 0.000000 0.105000 0.058000
v -0.027176 0.101422 0.058000
v -0.052500 0.090933 0.058000
v -0.074246 0.074246 0.058000
v -0.090933 0.052500 0.058000
v -0.101422 0.027176 0.058000
v -0.105000 0.000000 0.074000
v -0.101422 -0.027176 0.074000
v -0.090933 -0.052500 0.074000
v -0.074246 -0.074246 0.074000
v -0.052500 -0.090933 0.074000
v -0.027176 -0.101422 0.074000
v -0.000000 -0.105000 0.074000
v 0.027176 -0.101422 0.074000
v 0.052500 -0.090933 0.074000
v 0.074246 -0.074246 0.074000
v 0.090933 -0.052500 0.074000
v 0.101422 -0.027176 0.074000
v 0.105000 -0.000000 0.074000
v 0.101422 0.027176 0.074000
v 0.090933 0.052500 0.074000
v 0.074246 0.074246 0.074000
v 0.052500 0.090933 0.074000
v 0.027176 0.101422 0.074000
v 0.000000 0.105000 0.074000
v -0.027176 0.101422 0.074000
v -0.052500 0.090933 0.074000
v -0.074246 0.074246 0.074000
v -0.090933 0.052500 0.074000
v -0.101422 0.027176 0.074000
v -0.105000 0.000000 0.090000
v -0.101422 -0.027176 0.090000
v -0.090933 -0.052500 0.090000
v -0.074246 -0.074246 0.090000
v -0.052500 -0.090933 0.090000
v -0.027176 -0.101422 0.090000
v -0.000000 -0.105000 0.090000
v 0.027176 -0.101422 0.090000
v 0.052500 -0.090933 0.090000
v 0.074246 -0.074246 0.090000
v 0.090933 -0.052500 0.090000
v 0.101422 -0.027176 0.090000
v 0.105000 -0.000000 0.090000
v 0.101422 0.027176 0.090000
v 0.090933 0.052500 0.090000
v 0.074246 0.074246 0.090000
v 0.052500 0.090933 0.090000
v 0.027176 0.101422 0.090000
v 0.000000 0.105000 0.090000
v -0.027176 0.101422 0.090000
v -0.052500 0.090933 0.090000
v -0.074246 0.074246 0.090000
v -0.090933 0.052500 0.090000
v -0.101422 0.027176 0.090000
v -0.105000 0.000000 0.106000
v -0.101422 -0.027176 0.106000
v -0.090933 -0.052500 0.106000
v -0.074246 -0.074246 0.106000
v -0.052500 -0.090933 0.106000
v -0.027176 -0.101422 0.106000
v -0.000000 -0.105000 0.106000
v 0.027176 -0.101422 0.106000
v 0.052500 -0.090933 0.106000
v 0.074246 -0.074246 0.106000
v 0.090933 -0.052500 0.106000
v 0.101422 -0.027176 0.106000
v 0.105000 -0.000000 0.106000
v 0.101422 0.027176 0.106000
v 0.090933 0.052500 0.106000
v 0.074246 0.074246 0.106000
v 0.052500 0.090933 0.106000
v 0.027176 0.101422 0.106000
v 0.000000 0.105000 0.106000
v -0.027176 0.101422 0.106000
v -0.052500 0.090933 0.106000
v -0.074246 0.074246 0.106000
v -0.090933 0.052500 0.106000
v -0.101422 0.027176 0.106000
v -0.105000 0.000000 0.122000
v -0.101422 -0.027176 0.122000
v -0.090933 -0.052500 0.122000
v -0.074246 -0.074246 0.122000
v -0.052500 -0.090933 0.122000
v -0.027176 -0.101422 0.122000
v -0.000000 -0.105000 0.122000
v 0.027176 -0.101422 0.122000
v 0.052500 -0.090933 0.122000
v 0.074246 -0.074246 0.122000
v 0.090933 -0.052500 0.122000
v 0.101422 -0.027176 0.122000
v 0.105000 -0.000000 0.122000
v 0.101422 0.027176 0.122000
v 0.090933 0.052500 0.122000
v 0.074246 0.074246 0.122000
v 0.052500 0.090933 0.122000
v 0.027176 0.101422 0.122000
v 0.000000 0.105000 0.122000
v -0.027176 0.101422 0.122000
v -0.052500 0.090933 0.122000
v -0.074246 0.074246 0.122000
v -0.090933 0.052500 0.122000
v -0.101422 0.027176 0.122000
v -0.105000 0.000000 0.138000
v -0.101422 -0.027176 0.138000
v -0.090933 -0.052500 0.138000
v -0.074246 -0.074246 0.138000
v -0.052500 -0.090933 0.138000
v -0.027176 -0.101422 0.138000
v -0.000000 -0.105000 0.138000
v 0.027176 -0.101422 0.138000
v 0.052500 -0.090933 0.138000
v 0.074246 -0.074246 0.138000
v 0.090933 -0.052500 0.138000
v 0.101422 -0.027176 0.138000
v 0.105000 -0.000000 0.138000
v 0.101422 0.027176 0.138000
v 0.090933 0.052500 0.138000
v 0.074246 0.074246 0.138000
v 0.052500 0.090933 0.138000
v 0.027176 0.101422 0.138000
v 0.000000 0.105000 0.138000
v -0.027176 0.101422 0.138000
v -0.052500 0.090933 0.138000
v -0.074246 0.074246 0.138000
v -0.090933 0.052500 0.138000
v -0.101422 0.027176 0.138000
v -0.105000 0.000000 0.154000
v -0.101422 -0.027176 0.154000
v -0.090933 -0.052500 0.154000
v -0.074246 -0.074246 0.154000
v -0.052500 -0.090933 0.154000
v -0.027176 -0.101422 0.154000
v -0.000000 -0.105000 0.154000
v 0.027176 -0.101422 0.154000
v 0.052500 -0.090933 0.154000
v 0.074246 -0.074246 0.154000
v 0.090933 -0.052500 0.154000
v 0.101422 -0.027176 0.154000
v 0.105000 -0.000000 0.154000
v 0.101422 0.027176 0.154000
v 0.090933 0.052500 0.154000
v 0.074246 0.074246 0.154000
v 0.052500 0.090933 0.154000
v 0.027176 0.101422 0.154000
v 0.000000 0.105000 0.154000
v -0.027176 0.101422 0.154000
v -0.052500 0.090933 0.154000
v -0.074246 0.074246 0.154000
v -0.090933 0.052500 0.154000
v -0.101422 0.027176 0.154000
v -0.105000 0.000000 0.170000
v -0.101422 -0.027176 0.170000
v -0.090933 -0.052500 0.170000
v -0.074246 -0.074246 0.170000
v -0.052500 -0.090933 0.170000
v -0.027176 -0.101422 0.170000
v -0.000000 -0.105000 0.170000
v 0.027176 -0.101422 0.170000
v 0.052500 -0.090933 0.170000
v 0.074246 -0.074246 0.170000
v 0.090933 -0.052500 0.170000
v 0.101422 -0.027176 0.170000
v 0.105000 -0.000000 0.170000
v 0.101422 0.027176 0.170000
v 0.090933 0.052500 0.170000
v 0.074246 0.074246 0.170000
v 0.052500 0.090933 0.170000
v 0.027176 0.101422 0.170000
v 0.000000 0.105000 0.170000
v -0.027176 0.101422 0.170000
v -0.052500 0.090933 0.170000
v -0.074246 0.074246 0.170000
v -0.090933 0.052500 0.170000
v -0.101422 0.027176 0.170000
v -0.099861 0.000000 0.202447
v -0.096458 -0.025846 0.202447
v -0.086482 -0.049930 0.202447
v -0.070612 -0.070612 0.202447
v -0.049930 -0.086482 0.202447
v -0.025846 -0.096458 0.202447
v -0.000000 -0.099861 0.202447
v 0.025846 -0.096458 0.202447
v 0.049930 -0.086482 0.202447
v 0.070612 -0.070612 0.202447
v 0.086482 -0.049930 0.202447
v 0.096458 -0.025846 0.202447
v 0.099861 -0.000000 0.202447
v 0.096458 0.025846 0.202447
v 0.086482 0.049930 0.202447
v 0.070612 0.070612 0.202447
v 0.049930 0.086482 0.202447
v 0.025846 0.096458 0.202447
v 0.000000 0.099861 0.202447
v -0.025846 0.096458 0.202447
v -0.049930 0.086482 0.202447
v -0.070612 0.070612 0.202447
v -0.086482 0.049930 0.202447
v -0.096458 0.025846 0.202447
v -0.084947 0.000000 0.231717
v -0.082052 -0.021986 0.231717
v -0.073566 -0.042473 0.231717
v -0.060066 -0.060066 0.231717
v -0.042473 -0.073566 0.231717
v -0.021986 -0.082052 0.231717
v -0.000000 -0.084947 0.231717
v 0.021986 -0.082052 0.231717
v 0.042473 -0.073566 0.231717
v 0.060066 -0.060066 0.231717
v 0.073566 -0.042473 0.231717
v 0.082052 -0.021986 0.231717
v 0.084947 -0.000000 0.231717
v 0.082052 0.021986 0.231717
v 0.073566 0.042473 0.231717
v 0.060066 0.060066 0.231717
v 0.042473 0.073566 0.231717
v 0.021986 0.082052 0.231717
v 0.000000 0.084947 0.231717
v -0.021986 0.082052 0.231717
v -0.042473 0.073566 0.231717
v -0.060066 0.060066 0.231717
v -0.073566 0.042473 0.231717
v -0.082052 0.021986 0.231717
v -0.061717 0.000000 0.254947
v -0.059614 -0.015974 0.254947
v -0.053449 -0.030859 0.254947
v -0.043641 -0.043641 0.254947
v -0.030859 -0.053449 0.254947
v -0.015974 -0.059614 0.254947
v -0.000000 -0.061717 0.254947
v 0.015974 -0.059614 0.254947
v 0.030859 -0.053449 0.254947
v 0.043641 -0.043641 0.254947
v 0.053449 -0.030859 0.254947
v 0.059614 -0.015974 0.254947
v 0.061717 -0.000000 0.254947
v 0.059614 0.015974 0.254947
v 0.053449 0.030859 0.254947
v 0.043641 0.043641 0.254947
v 0.030859 0.053449 0.254947
v 0.015974 0.059614 0.254947
v 0.000000 0.061717 0.254947
v -0.015974 0.059614 0.254947
v -0.030859 0.053449 0.254947
v -0.043641 0.043641 0.254947
v -0.053449 0.030859 0.254947
v -0.059614 0.015974 0.254947
v -0.032447 0.000000 0.269861
v -0.031341 -0.008398 0.269861
v -0.028100 -0.016223 0.269861
v -0.022943 -0.022943 0.269861
v -0.016223 -0.028100 0.269861
v -0.008398 -0.031341 0.269861
v -0.000000 -0.032447 0.269861
v 0.008398 -0.031341 0.269861
v 0.016223 -0.028100 0.269861
v 0.022943 -0.022943 0.269861
v 0.028100 -0.016223 0.269861
v 0.031341 -0.008398 0.269861
v 0.032447 -0.000000 0.269861
v 0.031341 0.008398 0.269861
v 0.028100 0.016223 0.269861
v 0.022943 0.022943 0.269861
v 0.016223 0.028100 0.269861
v 0.008398 0.031341 0.269861
v 0.000000 0.032447 0.269861
v -0.008398 0.031341 0.269861
v -0.016223 0.028100 0.269861
v -0.022943 0.022943 0.269861
v -0.028100 0.016223 0.269861
v -0.031341 0.008398 0.269861
v -0.000000 0.000000 0.275000
v -0.099861 0.000000 -0.022447
v -0.096458 -0.025846 -0.022447
v -0.086482 -0.049930 -0.022447
v -0.070612 -0.070612 -0.022447
v -0.049930 -0.086482 -0.022447
v -0.025846 -0.096458 -0.022447
v -0.000000 -0.099861 -0.022447
v 0.025846 -0.096458 -0.022447
v 0.049930 -0.086482 -0.022447
v 0.070612 -0.070612 -0.022447
v 0.086482 -0.049930 -0.022447
v 0.096458 -0.025846 -0.022447
v 0.099861 -0.000000 -0.022447
v 0.096458 0.025846 -0.022447
v 0.086482 0.049930 -0.022447
v 0.070612 0.070612 -0.022447
v 0.049930 0.086482 -0.022447
v 0.025846 0.096458 -0.022447
v 0.000000 0.099861 -0.022447
v -0.025846 0.096458 -0.022447
v -0.049930 0.086482 -0.022447
v -0.070612 0.070612 -0.022447
v -0.086482 0.049930 -0.022447
v -0.096458 0.025846 -0.022447
v -0.084947 0.000000 -0.051717
v -0.082052 -0.021986 -0.051717
v -0.073566 -0.042473 -0.051717
v -0.060066 -0.060066 -0.051717
v -0.042473 -0.073566 -0.051717
v -0.021986 -0.082052 -0.051717
v -0.000000 -0.084947 -0.051717
v 0.021986 -0.082052 -0.051717
v 0.042473 -0.073566 -0.051717
v 0.060066 -0.060066 -0.051717
v 0.073566 -0.042473 -0.051717
v 0.082052 -0.021986 -0.051717
v 0.084947 -0.000000 -0.051717
v 0.082052 0.021986 -0.051717
v 0.073566 0.042473 -0.051717
v 0.060066 0.060066 -0.051717
v 0.042473 0.073566 -0.051717
v 0.021986 0.082052 -0.051717
v 0.000000 0.084947 -0.051717
v -0.021986 0.082052 -0.051717
v -0.042473 0.073566 -0.051717
v -0.060066 0.060066 -0.051717
v -0.073566 0.042473 -0.051717
v -0.082052 0.021986 -0.051717
v -0.061717 0.000000 -0.074947
v -0.059614 -0.015974 -0.074947
v -0.053449 -0.030859 -0.074947
v -0.043641 -0.043641 -0.074947
v -0.030859 -0.053449 -0.074947
v -0.015974 -0.059614 -0.074947
v -0.000000 -0.061717 -0.074947
v 0.015974 -0.059614 -0.074947
v 0.030859 -0.053449 -0.074947
v 0.043641 -0.043641 -0.074947
v 0.053449 -0.030859 -0.074947
v 0.059614 -0.015974 -0.074947
v 0.061717 -0.000000 -0.074947
v 0.059614 0.015974 -0.074947
v 0.053449 0.030859 -0.074947
v 0.043641 0.043641 -0.074947
v 0.030859 0.053449 -0.074947
v 0.015974 0.059614 -0.074947
v 0.000000 0.061717 -0.074947
v -0.015974 0.059614 -0.074947
v -0.030859 0.053449 -0.074947
v -0.043641 0.043641 -0.074947
v -0.053449 0.030859 -0.074947
v -0.059614 0.015974 -0.074947
v -0.032447 0.000000 -0.089861
v -0.031341 -0.008398 -0.089861
v -0.028100 -0.016223 -0.089861
v -0.022943 -0.022943 -0.089861
v -0.016223 -0.028100 -0.089861
v -0.008398 -0.031341 -0.089861
v -0.000000 -0.032447 -0.089861
v 0.008398 -0.031341 -0.089861
v 0.016223 -0.028100 -0.089861
v 0.022943 -0.022943 -0.089861
v 0.028100 -0.016223 -0.089861
v 0.031341 -0.008398 -0.089861
v 0.032447 -0.000000 -0.089861
v 0.031341 0.008398 -0.089861
v 0.028100 0.016223 -0.089861
v 0.022943 0.022943 -0.089861
v 0.016223 0.028100 -0.089861
v 0.008398 0.031341 -0.089861
v 0.000000 0.032447 -0.089861
v -0.008398 0.031341 -0.089861
v -0.016223 0.028100 -0.089861
v -0.022943 0.022943 -0.089861
v -0.028100 0.016223 -0.089861
v -0.031341 0.008398 -0.089861
v -0.000000 0.000000 -0.095000
f 362 363 387
f 362 387 386
f 363 364 388
f 363 388 387
f 364 365 389
f 364 389 388
f 365 366 390
f 365 390 389
f 366 367 391
f 366 391 390
f 367 368 392
f 367 392 391
f 368 369 393
f 368 393 392
f 369 370 394
f 369 394 393
f 370 371 395
f 370 395 394
f 371 372 396
f 371 396 395
f 372 373 397
f 372 397 396
f 373 374 398
f 373 398 397
f 374 375 399
f 374 399 398
f 375 376 400
f 375 400 399
f 376 377 401
f 376 401 400
f 377 378 402
f 377 402 401
f 378 379 403
f 378 403 402
f 379 380 404
f 379 404 403
f 380 381 405
f 380 405 404
f 381 382 406
f 381 406 405
f 382 383 407
f 382 407 406
f 383 384 408
f 383 408 407
f 384 385 409
f 384 409 408
f 385 362 386
f 385 386 409
f 386 387 411
f 386 411 410
f 387 388 412
f 387 412 411
f 388 389 413
f 388 413 412
f 389 390 414
f 389 414 413
f 390 391 415
f 390 415 414
f 391 392 416
f 391 416 415
f 392 393 417
f 392 417 416
f 393 394 418
f 393 418 417
f 394 395 419
f 394 419 418
f 395 396 420
f 395 420 419
f 396 397 421
f 396 421 420
f 397 398 422
f 397 422 421
f 398 399 423
f 398 423 422
f 399 400 424
f 399 424 423
f 400 401 425
f 400 425 424
f 401 402 426
f 401 426 425
f 402 403 427
f 402 427 426
f 403 404 428
f 403 428 427
f 404 405 429
f 404 429 428
f 405 406 430
f 405 430 429
f 406 407 431
f 406 431 430
f 407 408 432
f 407 432 431
f 408 409 433
f 408 433 432
f 409 386 410
f 409 410 433
f 410 411 435
f 410 435 434
f 411 412 436
f 411 436 435
f 412 413 437
f 412 437 436
f 413 414 438
f 413 438 437
f 414 415 439
f 414 439 438
f 415 416 440
f 415 440 439
f 416 417 441
f 416 441 440
f 417 418 442
f 417 442 441
f 418 419 443
f 418 443 442
f 419 420 444
f 419 444 443
f 420 421 445
f 420 445 444
f 421 422 446
f 421 446 445
f 422 423 447
f 422 447 446
f 423 424 448
f 423 448 447
f 424 425 449
f 424 449 448
f 425 426 450
f 425 450 449
f 426 427 451
f 426 451 450
f 427 428 452
f 427 452 451
f 428 429 453
f 428 453 452
f 429 430 454
f 429 454 453
f 430 431 455
f 430 455 454
f 431 432 456
f 431 456 455
f 432 433 457
f 432 457 456
f 433 410 434
f 433 434 457
f 434 435 458
f 434 458 458
f 435 436 458
f 435 458 458
f 436 437 458
f 436 458 458
f 437 438 458
f 437 458 458
f 438 439 458
f 438 458 458
f 439 440 458
f 439 458 458
f 440 441 458
f 440 458 458
f 441 442 458
f 441 458 458
f 442 443 458
f 442 458 458
f 443 444 458
f 443 458 458
f 444 445 458
f 444 458 458
f 445 446 458
f 445 458 458
f 446 447 458
f 446 458 458
f 447 448 458
f 447 458 458
f 448 449 458
f 448 458 458
f 449 450 458
f 449 458 458
f 450 451 458
f 450 458 458
f 451 452 458
f 451 458 458
f 452 453 458
f 452 458 458
f 453 454 458
f 453 458 458
f 454 455 458
f 454 458 458
f 455 456 458
f 455 458 458
f 456 457 458
f 456 458 458
f 457 434 458
f 457 458 458
f 458 458 2
f 458 2 1
f 458 458 3
f 458 3 2
f 458 458 4
f 458 4 3
f 458 458 5
f 458 5 4
f 458 458 6
f 458 6 5
f 458 458 7
f 458 7 6
f 458 458 8
f 458 8 7
f 458 458 9
f 458 9 8
f 458 458 10
f 458 10 9
f 458 458 11
f 458 11 10
f 458 458 12
f 458 12 11
f 458 458 13
f 458 13 12
f 458 458 14
f 458 14 13
f 458 458 15
f 458 15 14
f 458 458 16
f 458 16 15
f 458 458 17
f 458 17 16
f 458 458 18
f 458 18 17
f 458 458 19
f 458 19 18
f 458 458 20
f 458 20 19
f 458 458 21
f 458 21 20
f 458 458 22
f 458 22 21
f 458 458 23
f 458 23 22
f 458 458 24
f 458 24 23
f 458 458 1
f 458 1 24
f 1 2 26
f 1 26 25
f 2 3 27
f 2 27 26
f 3 4 28
f 3 28 27
f 4 5 29
f 4 29 28
f 5 6 30
f 5 30 29
f 6 7 31
f 6 31 30
f 7 8 32
f 7 32 31
f 8 9 33
f 8 33 32
f 9 10 34
f 9 34 33
f 10 11 35
f 10 35 34
f 11 12 36
f 11 36 35
f 12 13 37
f 12 37 36
f 13 14 38
f 13 38 37
f 14 15 39
f 14 39 38
f 15 16 40
f 15 40 39
f 16 17 41
f 16 41 40
f 17 18 42
f 17 42 41
f 18 19 43
f 18 43 42
f 19 20 44
f 19 44 43
f 20 21 45
f 20 45 44
f 21 22 46
f 21 46 45
f 22 23 47
f 22 47 46
f 23 24 48
f 23 48 47
f 24 1 25
f 24 25 48
f 25 26 50
f 25 50 49
f 26 27 51
f 26 51 50
f 27 28 52
f 27 52 51
f 28 29 53
f 28 53 52
f 29 30 54
f 29 54 53
f 30 31 55
f 30 55 54
f 31 32 56
f 31 56 55
f 32 33 57
f 32 57 56
f 33 34 58
f 33 58 57
f 34 35 59
f 34 59 58
f 35 36 60
f 35 60 59
f 36 37 61
f 36 61 60
f 37 38 62
f 37 62 61
f 38 39 63
f 38 63 62
f 39 40 64
f 39 64 63
f 40 41 65
f 40 65 64
f 41 42 66
f 41 66 65
f 42 43 67
f 42 67 66
f 43 44 68
f 43 68 67
f 44 45 69
f 44 69 68
f 45 46 70
f 45 70 69
f 46 47 71
f 46 71 70
f 47 48 72
f 47 72 71
f 48 25 49
f 48 49 72
f 49 50 74
f 49 74 73
f 50 51 75
f 50 75 74
f 51 52 76
f 51 76 75
f 52 53 77
f 52 77 76
f 53 54 78
f 53 78 77
f 54 55 79
f 54 79 78
f 55 56 80
f 55 80 79
f 56 57 81
f 56 81 80
f 57 58 82
f 57 82 81
f 58 59 83
f 58 83 82
f 59 60 84
f 59 84 83
f 60 61 85
f 60 85 84
f 61 62 86
f 61 86 85
f 62 63 87
f 62 87 86
f 63 64 88
f 63 88 87
f 64 65 89
f 64 89 88
f 65 66 90
f 65 90 89
f 66 67 91
f 66 91 90
f 67 68 92
f 67 92 91
f 68 69 93
f 68 93 92
f 69 70 94
f 69 94 93
f 70 71 95
f 70 95 94
f 71 72 96
f 71 96 95
f 72 49 73
f 72 73 96
f 73 74 98
f 73 98 97
f 74 75 99
f 74 99 98
f 75 76 100
f 75 100 99
f 76 77 101
f 76 101 100
f 77 78 102
f 77 102 101
f 78 79 103
f 78 103 102
f 79 80 104
f 79 104 103
f 80 81 105
f 80 105 104
f 81 82 106
f 81 106 105
f 82 83 107
f 82 107 106
f 83 84 108
f 83 108 107
f 84 85 109
f 84 109 108
f 85 86 110
f 85 110 109
f 86 87 111
f 86 111 110
f 87 88 112
f 87 112 111
f 88 89 113
f 88 113 112
f 89 90 114
f 89 114 113
f 90 91 115
f 90 115 114
f 91 92 116
f 91 116 115
f 92 93 117
f 92 117 116
f 93 94 118
f 93 118 117
f 94 95 119
f 94 119 118
f 95 96 120
f 95 120 119
f 96 73 97
f 96 97 120
f 97 98 122
f 97 122 121
f 98 99 123
f 98 123 122
f 99 100 124
f 99 124 123
f 100 101 125
f 100 125 124
f 101 102 126
f 101 126 125
f 102 103 127
f 102 127 126
f 103 104 128
f 103 128 127
f 104 105 129
f 104 129 128
f 105 106 130
f 105 130 129
f 106 107 131
f 106 131 130
f 107 108 132
f 107 132 131
f 108 109 133
f 108 133 132
f 109 110 134
f 109 134 133
f 110 111 135
f 110 135 134
f 111 112 136
f 111 136 135
f 112 113 137
f 112 137 136
f 113 114 138
f 113 138 137
f 114 115 139
f 114 139 138
f 115 116 140
f 115 140 139
f 116 117 141
f 116 141 140
f 117 118 142
f 117 142 141
f 118 119 143
f 118 143 142
f 119 120 144
f 119 144 143
f 120 97 121
f 120 121 144
f 121 122 146
f 121 146 145
f 122 123 147
f 122 147 146
f 123 124 148
f 123 148 147
f 124 125 149
f 124 149 148
f 125 126 150
f 125 150 149
f 126 127 151
f 126 151 150
f 127 128 152
f 127 152 151
f 128 129 153
f 128 153 152
f 129 130 154
f 129 154 153
f 130 131 155
f 130 155 154
f 131 132 156
f 131 156 155
f 132 133 157
f 132 157 156
f 133 134 158
f 133 158 157
f 134 135 159
f 134 159 158
f 135 136 160
f 135 160 159
f 136 137 161
f 136 161 160
f 137 138 162
f 137 162 161
f 138 139 163
f 138 163 162
f 139 140 164
f 139 164 163
f 140 141 165
f 140 165 164
f 141 142 166
f 141 166 165
f 142 143 167
f 142 167 166
f 143 144 168
f 143 168 167
f 144 121 145
f 144 145 168
f 145 146 170
f 145 170 169
f 146 147 171
f 146 171 170
f 147 148 172
f 147 172 171
f 148 149 173
f 148 173 172
f 149 150 174
f 149 174 173
f 150 151 175
f 150 175 174
f 151 152 176
f 151 176 175
f 152 153 177
f 152 177 176
f 153 154 178
f 153 178 177
f 154 155 179
f 154 179 178
f 155 156 180
f 155 180 179
f 156 157 181
f 156 181 180
f 157 158 182
f 157 182 181
f 158 159 183
f 158 183 182
f 159 160 184
f 159 184 183
f 160 161 185
f 160 185 184
f 161 162 186
f 161 186 185
f 162 163 187
f 162 187 186
f 163 164 188
f 163 188 187
f 164 165 189
f 164 189 188
f 165 166 190
f 165 190 189
f 166 167 191
f 166 191 190
f 167 168 192
f 167 192 191
f 168 145 169
f 168 169 192
f 169 170 194
f 169 194 193
f 170 171 195
f 170 195 194
f 171 172 196
f 171 196 195
f 172 173 197
f 172 197 196
f 173 174 198
f 173 198 197
f 174 175 199
f 174 199 198
f 175 176 200
f 175 200 199
f 176 177 201
f 176 201 200
f 177 178 202
f 177 202 201
f 178 179 203
f 178 203 202
f 179 180 204
f 179 204 203
f 180 181 205
f 180 205 204
f 181 182 206
f 181 206 205
f 182 183 207
f 182 207 206
f 183 184 208
f 183 208 207
f 184 185 209
f 184 209 208
f 185 186 210
f 185 210 209
f 186 187 211
f 186 211 210
f 187 188 212
f 187 212 211
f 188 189 213
f 188 213 212
f 189 190 214
f 189 214 213
f 190 191 215
f 190 215 214
f 191 192 216
f 191 216 215
f 192 169 193
f 192 193 216
f 193 194 218
f 193 218 217
f 194 195 219
f 194 219 218
f 195 196 220
f 195 220 219
f 196 197 221
f 196 221 220
f 197 198 222
f 197 222 221
f 198 199 223
f 198 223 222
f 199 200 224
f 199 224 223
f 200 201 225
f 200 225 224
f 201 202 226
f 201 226 225
f 202 203 227
f 202 227 226
f 203 204 228
f 203 228 227
f 204 205 229
f 204 229 228
f 205 206 230
f 205 230 229
f 206 207 231
f 206 231 230
f 207 208 232
f 207 232 231
f 208 209 233
f 208 233 232
f 209 210 234
f 209 234 233
f 210 211 235
f 210 235 234
f 211 212 236
f 211 236 235
f 212 213 237
f 212 237 236
f 213 214 238
f 213 238 237
f 214 215 239
f 214 239 238
f 215 216 240
f 215 240 239
f 216 193 217
f 216 217 240
f 217 218 242
f 217 242 241
f 218 219 243
f 218 243 242
f 219 220 244
f 219 244 243
f 220 221 245
f 220 245 244
f 221 222 246
f 221 246 245
f 222 223 247
f 222 247 246
f 223 224 248
f 223 248 247
f 224 225 249
f 224 249 248
f 225 226 250
f 225 250 249
f 226 227 251
f 226 251 250
f 227 228 252
f 227 252 251
f 228 229 253
f 228 253 252
f 229 230 254
f 229 254 253
f 230 231 255
f 230 255 254
f 231 232 256
f 231 256 255
f 232 233 257
f 232 257 256
f 233 234 258
f 233 258 257
f 234 235 259
f 234 259 258
f 235 236 260
f 235 260 259
f 236 237 261
f 236 261 260
f 237 238 262
f 237 262 261
f 238 239 263
f 238 263 262
f 239 240 264
f 239 264 263
f 240 217 241
f 240 241 264
f 241 242 266
f 241 266 265
f 242 243 267
f 242 267 266
f 243 244 268
f 243 268 267
f 244 245 269
f 244 269 268
f 245 246 270
f 245 270 269
f 246 247 271
f 246 271 270
f 247 248 272
f 247 272 271
f 248 249 273
f 248 273 272
f 249 250 274
f 249 274 273
f 250 251 275
f 250 275 274
f 251 252 276
f 251 276 275
f 252 253 277
f 252 277 276
f 253 254 278
f 253 278 277
f 254 255 279
f 254 279 278
f 255 256 280
f 255 280 279
f 256 257 281
f 256 281 280
f 257 258 282
f 257 282 281
f 258 259 283
f 258 283 282
f 259 260 284
f 259 284 283
f 260 261 285
f 260 285 284
f 261 262 286
f 261 286 285
f 262 263 287
f 262 287 286
f 263 264 288
f 263 288 287
f 264 241 265
f 264 265 288
f 265 266 290
f 265 290 289
f 266 267 291
f 266 291 290
f 267 268 292
f 267 292 291
f 268 269 293
f 268 293 292
f 269 270 294
f 269 294 293
f 270 271 295
f 270 295 294
f 271 272 296
f 271 296 295
f 272 273 297
f 272 297 296
f 273 274 298
f 273 298 297
f 274 275 299
f 274 299 298
f 275 276 300
f 275 300 299
f 276 277 301
f 276 301 300
f 277 278 302
f 277 302 301
f 278 279 303
f 278 303 302
f 279 280 304
f 279 304 303
f 280 281 305
f 280 305 304
f 281 282 306
f 281 306 305
f 282 283 307
f 282 307 306
f 283 284 308
f 283 308 307
f 284 285 309
f 284 309 308
f 285 286 310
f 285 310 309
f 286 287 311
f 286 311 310
f 287 288 312
f 287 312 311
f 288 265 289
f 288 289 312
f 289 290 314
f 289 314 313
f 290 291 315
f 290 315 314
f 291 292 316
f 291 316 315
f 292 293 317
f 292 317 316
f 293 294 318
f 293 318 317
f 294 295 319
f 294 319 318
f 295 296 320
f 295 320 319
f 296 297 321
f 296 321 320
f 297 298 322
f 297 322 321
f 298 299 323
f 298 323 322
f 299 300 324
f 299 324 323
f 300 301 325
f 300 325 324
f 301 302 326
f 301 326 325
f 302 303 327
f 302 327 326
f 303 304 328
f 303 328 327
f 304 305 329
f 304 329 328
f 305 306 330
f 305 330 329
f 306 307 331
f 306 331 330
f 307 308 332
f 307 332 331
f 308 309 333
f 308 333 332
f 309 310 334
f 309 334 333
f 310 311 335
f 310 335 334
f 311 312 336
f 311 336 335
f 312 289 313
f 312 313 336
f 313 314 338
f 313 338 337
f 314 315 339
f 314 339 338
f 315 316 340
f 315 340 339
f 316 317 341
f 316 341 340
f 317 318 342
f 317 342 341
f 318 319 343
f 318 343 342
f 319 320 344
f 319 344 343
f 320 321 345
f 320 345 344
f 321 322 346
f 321 346 345
f 322 323 347
f 322 347 346
f 323 324 348
f 323 348 347
f 324 325 349
f 324 349 348
f 325 326 350
f 325 350 349
f 326 327 351
f 326 351 350
f 327 328 352
f 327 352 351
f 328 329 353
f 328 353 352
f 329 330 354
f 329 354 353
f 330 331 355
f 330 355 354
f 331 332 356
f 331 356 355
f 332 333 357
f 332 357 356
f 333 334 358
f 333 358 357
f 334 335 359
f 334 359 358
f 335 336 360
f 335 360 359
f 336 313 337
f 336 337 360
f 337 338 361
f 337 361 361
f 338 339 361
f 338 361 361
f 339 340 361
f 339 361 361
f 340 341 361
f 340 361 361
f 341 342 361
f 341 361 361
f 342 343 361
f 342 361 361
f 343 344 361
f 343 361 361
f 344 345 361
f 344 361 361
f 345 346 361
f 345 361 361
f 346 347 361
f 346 361 361
f 347 348 361
f 347 361 361
f 348 349 361
f 348 361 361
f 349 350 361
f 349 361 361
f 350 351 361
f 350 361 361
f 351 352 361
f 351 361 361
f 352 353 361
f 352 361 361
f 353 354 361
f 353 361 361
f 354 355 361
f 354 361 361
f 355 356 361
f 355 361 361
f 356 357 361
f 356 361 361
f 357 358 361
f 357 361 361
f 358 359 361
f 358 361 361
f 359 360 361
f 359 361 361
f 360 337 361
f 360 361 361
